<mxfile host="app.diagrams.net" agent="Mozilla/5.0 (Windows NT 10.0; Win64; x64; rv:136.0) Gecko/20100101 Firefox/136.0" version="26.1.2">
  <diagram id="R2lEEEUBdFMjLlhIrx00" name="Page-1">
    <mxGraphModel dx="1927" dy="1689" grid="1" gridSize="10" guides="1" tooltips="1" connect="1" arrows="1" fold="1" page="1" pageScale="1" pageWidth="850" pageHeight="1100" math="0" shadow="0" extFonts="Permanent Marker^https://fonts.googleapis.com/css?family=Permanent+Marker">
      <root>
        <mxCell id="0" />
        <mxCell id="1" parent="0" />
        <mxCell id="MzXAym6lT5MhWj5hJSEz-1" value="&lt;div&gt;USER&lt;/div&gt;" style="rounded=0;whiteSpace=wrap;html=1;" parent="1" vertex="1">
          <mxGeometry y="30" width="110" height="40" as="geometry" />
        </mxCell>
        <mxCell id="MzXAym6lT5MhWj5hJSEz-2" value="&lt;div&gt;UID&lt;/div&gt;" style="ellipse;whiteSpace=wrap;html=1;" parent="1" vertex="1">
          <mxGeometry x="3" y="-20" width="50" height="30" as="geometry" />
        </mxCell>
        <mxCell id="MzXAym6lT5MhWj5hJSEz-3" value="&lt;div&gt;name&lt;/div&gt;" style="ellipse;whiteSpace=wrap;html=1;" parent="1" vertex="1">
          <mxGeometry x="-80" y="70" width="60" height="30" as="geometry" />
        </mxCell>
        <mxCell id="MzXAym6lT5MhWj5hJSEz-4" value="&lt;div&gt;country&lt;/div&gt;" style="ellipse;whiteSpace=wrap;html=1;" parent="1" vertex="1">
          <mxGeometry x="60" y="-20" width="60" height="30" as="geometry" />
        </mxCell>
        <mxCell id="MzXAym6lT5MhWj5hJSEz-5" value="reg_date" style="ellipse;whiteSpace=wrap;html=1;" parent="1" vertex="1">
          <mxGeometry x="-60" y="-10" width="60" height="30" as="geometry" />
        </mxCell>
        <mxCell id="MzXAym6lT5MhWj5hJSEz-6" value="&lt;div&gt;usr_prof_link&lt;/div&gt;" style="ellipse;whiteSpace=wrap;html=1;" parent="1" vertex="1">
          <mxGeometry x="-97.5" y="20" width="75" height="40" as="geometry" />
        </mxCell>
        <mxCell id="MzXAym6lT5MhWj5hJSEz-7" value="&lt;div&gt;upvotes&lt;/div&gt;" style="ellipse;whiteSpace=wrap;html=1;" parent="1" vertex="1">
          <mxGeometry x="-20" y="90" width="60" height="30" as="geometry" />
        </mxCell>
        <mxCell id="MzXAym6lT5MhWj5hJSEz-8" value="downvotes" style="ellipse;whiteSpace=wrap;html=1;" parent="1" vertex="1">
          <mxGeometry x="50" y="90" width="70" height="30" as="geometry" />
        </mxCell>
        <mxCell id="MzXAym6lT5MhWj5hJSEz-10" value="&lt;div&gt;BADGE&lt;/div&gt;" style="rounded=0;whiteSpace=wrap;html=1;" parent="1" vertex="1">
          <mxGeometry x="326" y="32.5" width="120" height="35" as="geometry" />
        </mxCell>
        <mxCell id="MzXAym6lT5MhWj5hJSEz-11" value="BID" style="ellipse;whiteSpace=wrap;html=1;" parent="1" vertex="1">
          <mxGeometry x="290" y="-10" width="50" height="30" as="geometry" />
        </mxCell>
        <mxCell id="MzXAym6lT5MhWj5hJSEz-12" value="&lt;div&gt;title&lt;/div&gt;" style="ellipse;whiteSpace=wrap;html=1;" parent="1" vertex="1">
          <mxGeometry x="401" y="-15" width="65" height="30" as="geometry" />
        </mxCell>
        <mxCell id="MzXAym6lT5MhWj5hJSEz-13" value="date" style="ellipse;whiteSpace=wrap;html=1;" parent="1" vertex="1">
          <mxGeometry x="343" y="-25" width="55" height="30" as="geometry" />
        </mxCell>
        <mxCell id="MzXAym6lT5MhWj5hJSEz-14" value="uid" style="ellipse;whiteSpace=wrap;html=1;" parent="1" vertex="1">
          <mxGeometry x="456" y="20" width="50" height="30" as="geometry" />
        </mxCell>
        <mxCell id="MzXAym6lT5MhWj5hJSEz-16" value="POST" style="rounded=0;whiteSpace=wrap;html=1;" parent="1" vertex="1">
          <mxGeometry x="190" y="250" width="120" height="40" as="geometry" />
        </mxCell>
        <mxCell id="MzXAym6lT5MhWj5hJSEz-17" value="PID?" style="ellipse;whiteSpace=wrap;html=1;" parent="1" vertex="1">
          <mxGeometry x="190" y="400" width="90" height="50" as="geometry" />
        </mxCell>
        <mxCell id="MzXAym6lT5MhWj5hJSEz-18" value="titel" style="ellipse;whiteSpace=wrap;html=1;" parent="1" vertex="1">
          <mxGeometry x="220" y="300" width="50" height="30" as="geometry" />
        </mxCell>
        <mxCell id="MzXAym6lT5MhWj5hJSEz-19" value="body" style="ellipse;whiteSpace=wrap;html=1;" parent="1" vertex="1">
          <mxGeometry x="170" y="500" width="120" height="80" as="geometry" />
        </mxCell>
        <mxCell id="MzXAym6lT5MhWj5hJSEz-20" value="tags" style="ellipse;whiteSpace=wrap;html=1;" parent="1" vertex="1">
          <mxGeometry x="10" y="520" width="120" height="80" as="geometry" />
        </mxCell>
        <mxCell id="MzXAym6lT5MhWj5hJSEz-21" value="view_count" style="ellipse;whiteSpace=wrap;html=1;" parent="1" vertex="1">
          <mxGeometry x="-130" y="420" width="120" height="80" as="geometry" />
        </mxCell>
        <mxCell id="MzXAym6lT5MhWj5hJSEz-22" value="creation_date" style="ellipse;whiteSpace=wrap;html=1;" parent="1" vertex="1">
          <mxGeometry x="-120" y="540" width="120" height="80" as="geometry" />
        </mxCell>
        <mxCell id="MzXAym6lT5MhWj5hJSEz-23" value="score" style="ellipse;whiteSpace=wrap;html=1;" parent="1" vertex="1">
          <mxGeometry x="293" y="300" width="50" height="30" as="geometry" />
        </mxCell>
        <mxCell id="MzXAym6lT5MhWj5hJSEz-24" value="uid" style="ellipse;whiteSpace=wrap;html=1;" parent="1" vertex="1">
          <mxGeometry x="130" y="580" width="120" height="80" as="geometry" />
        </mxCell>
        <mxCell id="MzXAym6lT5MhWj5hJSEz-25" value="linked_to" style="ellipse;whiteSpace=wrap;html=1;" parent="1" vertex="1">
          <mxGeometry x="220" y="445" width="80" height="50" as="geometry" />
        </mxCell>
        <mxCell id="MzXAym6lT5MhWj5hJSEz-26" value="COMMENT" style="rounded=0;whiteSpace=wrap;html=1;" parent="1" vertex="1">
          <mxGeometry x="330" y="650" width="120" height="60" as="geometry" />
        </mxCell>
        <mxCell id="MzXAym6lT5MhWj5hJSEz-27" value="&lt;div&gt;CID&lt;/div&gt;" style="ellipse;whiteSpace=wrap;html=1;" parent="1" vertex="1">
          <mxGeometry x="415" y="595" width="80" height="50" as="geometry" />
        </mxCell>
        <mxCell id="MzXAym6lT5MhWj5hJSEz-28" value="PID" style="ellipse;whiteSpace=wrap;html=1;" parent="1" vertex="1">
          <mxGeometry x="500" y="610" width="60" height="50" as="geometry" />
        </mxCell>
        <mxCell id="MzXAym6lT5MhWj5hJSEz-29" value="text" style="ellipse;whiteSpace=wrap;html=1;" parent="1" vertex="1">
          <mxGeometry x="380" y="720" width="70" height="50" as="geometry" />
        </mxCell>
        <mxCell id="MzXAym6lT5MhWj5hJSEz-30" value="UID" style="ellipse;whiteSpace=wrap;html=1;" parent="1" vertex="1">
          <mxGeometry x="460" y="660" width="70" height="40" as="geometry" />
        </mxCell>
        <mxCell id="MzXAym6lT5MhWj5hJSEz-31" value="creation_date" style="ellipse;whiteSpace=wrap;html=1;" parent="1" vertex="1">
          <mxGeometry x="460" y="710" width="80" height="50" as="geometry" />
        </mxCell>
        <mxCell id="MzXAym6lT5MhWj5hJSEz-32" value="score" style="ellipse;whiteSpace=wrap;html=1;" parent="1" vertex="1">
          <mxGeometry x="340" y="600" width="70" height="40" as="geometry" />
        </mxCell>
        <mxCell id="yKqKtcvJ76gqDMXew3as-1" value="&lt;div&gt;has&lt;/div&gt;" style="rhombus;whiteSpace=wrap;html=1;" vertex="1" parent="1">
          <mxGeometry x="170" y="30" width="80" height="40" as="geometry" />
        </mxCell>
        <mxCell id="yKqKtcvJ76gqDMXew3as-2" value="" style="endArrow=none;html=1;rounded=0;entryX=1;entryY=0.5;entryDx=0;entryDy=0;exitX=0;exitY=0.5;exitDx=0;exitDy=0;" edge="1" parent="1" source="yKqKtcvJ76gqDMXew3as-22" target="MzXAym6lT5MhWj5hJSEz-1">
          <mxGeometry width="50" height="50" relative="1" as="geometry">
            <mxPoint x="330" y="160" as="sourcePoint" />
            <mxPoint x="380" y="110" as="targetPoint" />
          </mxGeometry>
        </mxCell>
        <mxCell id="yKqKtcvJ76gqDMXew3as-5" value="" style="endArrow=none;html=1;rounded=0;entryX=0;entryY=0.5;entryDx=0;entryDy=0;" edge="1" parent="1" source="yKqKtcvJ76gqDMXew3as-19" target="MzXAym6lT5MhWj5hJSEz-10">
          <mxGeometry width="50" height="50" relative="1" as="geometry">
            <mxPoint x="250" y="50" as="sourcePoint" />
            <mxPoint x="300" as="targetPoint" />
          </mxGeometry>
        </mxCell>
        <mxCell id="yKqKtcvJ76gqDMXew3as-6" value="" style="endArrow=none;html=1;rounded=0;exitX=0.5;exitY=0;exitDx=0;exitDy=0;entryX=0.5;entryY=1;entryDx=0;entryDy=0;" edge="1" parent="1" source="MzXAym6lT5MhWj5hJSEz-1" target="MzXAym6lT5MhWj5hJSEz-4">
          <mxGeometry width="50" height="50" relative="1" as="geometry">
            <mxPoint x="60" y="30" as="sourcePoint" />
            <mxPoint x="110" y="-20" as="targetPoint" />
          </mxGeometry>
        </mxCell>
        <mxCell id="yKqKtcvJ76gqDMXew3as-8" value="" style="endArrow=none;html=1;rounded=0;entryX=0.5;entryY=1;entryDx=0;entryDy=0;" edge="1" parent="1" target="MzXAym6lT5MhWj5hJSEz-1">
          <mxGeometry width="50" height="50" relative="1" as="geometry">
            <mxPoint x="80" y="90" as="sourcePoint" />
            <mxPoint x="130" y="40" as="targetPoint" />
          </mxGeometry>
        </mxCell>
        <mxCell id="yKqKtcvJ76gqDMXew3as-10" value="" style="endArrow=none;html=1;rounded=0;entryX=0;entryY=1;entryDx=0;entryDy=0;exitX=1;exitY=0.5;exitDx=0;exitDy=0;" edge="1" parent="1" source="MzXAym6lT5MhWj5hJSEz-3" target="MzXAym6lT5MhWj5hJSEz-1">
          <mxGeometry width="50" height="50" relative="1" as="geometry">
            <mxPoint x="-20" y="90" as="sourcePoint" />
            <mxPoint x="30" y="40" as="targetPoint" />
          </mxGeometry>
        </mxCell>
        <mxCell id="yKqKtcvJ76gqDMXew3as-11" value="" style="endArrow=none;html=1;rounded=0;exitX=0.5;exitY=0;exitDx=0;exitDy=0;entryX=0.25;entryY=1;entryDx=0;entryDy=0;" edge="1" parent="1" source="MzXAym6lT5MhWj5hJSEz-7" target="MzXAym6lT5MhWj5hJSEz-1">
          <mxGeometry width="50" height="50" relative="1" as="geometry">
            <mxPoint x="330" y="160" as="sourcePoint" />
            <mxPoint x="380" y="110" as="targetPoint" />
          </mxGeometry>
        </mxCell>
        <mxCell id="yKqKtcvJ76gqDMXew3as-12" value="" style="endArrow=none;html=1;rounded=0;" edge="1" parent="1">
          <mxGeometry width="50" height="50" relative="1" as="geometry">
            <mxPoint x="-28" y="50" as="sourcePoint" />
            <mxPoint y="50" as="targetPoint" />
          </mxGeometry>
        </mxCell>
        <mxCell id="yKqKtcvJ76gqDMXew3as-13" value="" style="endArrow=none;html=1;rounded=0;entryX=0.25;entryY=0;entryDx=0;entryDy=0;" edge="1" parent="1" target="MzXAym6lT5MhWj5hJSEz-1">
          <mxGeometry width="50" height="50" relative="1" as="geometry">
            <mxPoint x="30" y="10" as="sourcePoint" />
            <mxPoint x="80" y="-40" as="targetPoint" />
          </mxGeometry>
        </mxCell>
        <mxCell id="yKqKtcvJ76gqDMXew3as-14" value="" style="endArrow=none;html=1;rounded=0;entryX=0;entryY=0;entryDx=0;entryDy=0;" edge="1" parent="1" target="MzXAym6lT5MhWj5hJSEz-1">
          <mxGeometry width="50" height="50" relative="1" as="geometry">
            <mxPoint x="-20" y="20" as="sourcePoint" />
            <mxPoint x="30" y="-30" as="targetPoint" />
          </mxGeometry>
        </mxCell>
        <mxCell id="yKqKtcvJ76gqDMXew3as-16" value="" style="endArrow=none;html=1;rounded=0;exitX=0.5;exitY=0;exitDx=0;exitDy=0;" edge="1" parent="1" source="MzXAym6lT5MhWj5hJSEz-10">
          <mxGeometry width="50" height="50" relative="1" as="geometry">
            <mxPoint x="360" y="60" as="sourcePoint" />
            <mxPoint x="410" y="10" as="targetPoint" />
          </mxGeometry>
        </mxCell>
        <mxCell id="yKqKtcvJ76gqDMXew3as-18" value="" style="endArrow=none;html=1;rounded=0;entryX=0.5;entryY=1;entryDx=0;entryDy=0;exitX=0.25;exitY=0;exitDx=0;exitDy=0;" edge="1" parent="1" source="MzXAym6lT5MhWj5hJSEz-10" target="MzXAym6lT5MhWj5hJSEz-13">
          <mxGeometry width="50" height="50" relative="1" as="geometry">
            <mxPoint x="370" y="30" as="sourcePoint" />
            <mxPoint x="410" y="-10" as="targetPoint" />
          </mxGeometry>
        </mxCell>
        <mxCell id="yKqKtcvJ76gqDMXew3as-21" value="" style="endArrow=none;html=1;rounded=0;entryX=0;entryY=0.5;entryDx=0;entryDy=0;" edge="1" parent="1" target="yKqKtcvJ76gqDMXew3as-19">
          <mxGeometry width="50" height="50" relative="1" as="geometry">
            <mxPoint x="250" y="50" as="sourcePoint" />
            <mxPoint x="326" y="50" as="targetPoint" />
          </mxGeometry>
        </mxCell>
        <mxCell id="yKqKtcvJ76gqDMXew3as-19" value="MC" style="text;html=1;align=center;verticalAlign=middle;whiteSpace=wrap;rounded=0;fillColor=default;fillStyle=solid;" vertex="1" parent="1">
          <mxGeometry x="270" y="45" width="30" height="10" as="geometry" />
        </mxCell>
        <mxCell id="yKqKtcvJ76gqDMXew3as-23" value="" style="endArrow=none;html=1;rounded=0;entryX=1;entryY=0.5;entryDx=0;entryDy=0;exitX=0;exitY=0.5;exitDx=0;exitDy=0;" edge="1" parent="1" source="yKqKtcvJ76gqDMXew3as-1" target="yKqKtcvJ76gqDMXew3as-22">
          <mxGeometry width="50" height="50" relative="1" as="geometry">
            <mxPoint x="170" y="50" as="sourcePoint" />
            <mxPoint x="110" y="50" as="targetPoint" />
          </mxGeometry>
        </mxCell>
        <mxCell id="yKqKtcvJ76gqDMXew3as-22" value="1" style="text;html=1;align=center;verticalAlign=middle;whiteSpace=wrap;rounded=0;fillColor=default;fillStyle=solid;" vertex="1" parent="1">
          <mxGeometry x="127" y="45" width="30" height="10" as="geometry" />
        </mxCell>
        <mxCell id="yKqKtcvJ76gqDMXew3as-25" value="" style="endArrow=none;html=1;rounded=0;exitX=1;exitY=0.5;exitDx=0;exitDy=0;entryX=0;entryY=1;entryDx=0;entryDy=0;" edge="1" parent="1" source="MzXAym6lT5MhWj5hJSEz-10" target="MzXAym6lT5MhWj5hJSEz-14">
          <mxGeometry width="50" height="50" relative="1" as="geometry">
            <mxPoint x="420" y="90" as="sourcePoint" />
            <mxPoint x="470" y="40" as="targetPoint" />
          </mxGeometry>
        </mxCell>
        <mxCell id="yKqKtcvJ76gqDMXew3as-27" value="" style="endArrow=none;html=1;rounded=0;exitX=0.077;exitY=0.078;exitDx=0;exitDy=0;exitPerimeter=0;" edge="1" parent="1">
          <mxGeometry width="50" height="50" relative="1" as="geometry">
            <mxPoint x="345.24000000000024" y="33.33999999999992" as="sourcePoint" />
            <mxPoint x="330" y="16" as="targetPoint" />
          </mxGeometry>
        </mxCell>
      </root>
    </mxGraphModel>
  </diagram>
</mxfile>
